<?xml version="1.0" standalone="no"?>
<!DOCTYPE svg PUBLIC "-//W3C//DTD SVG 20010904//EN"
 "http://www.w3.org/TR/2001/REC-SVG-20010904/DTD/svg10.dtd">
<svg version="1.0" xmlns="http://www.w3.org/2000/svg"
 width="500.000000pt" height="500.000000pt" viewBox="0 0 500.000000 500.000000"
 preserveAspectRatio="xMidYMid meet">

<g transform="translate(0.000000,500.000000) scale(0.100000,-0.100000)"
fill="#000000" stroke="none">
<path d="M2088 3524 c-16 -8 -28 -16 -28 -17 0 -1 15 -3 33 -4 26 -1 28 0 12
7 -14 6 -16 9 -5 10 8 2 19 2 23 1 5 -1 6 3 2 9 -7 12 -4 13 -37 -6z"/>
<path d="M2201 3486 c-9 -11 -9 -16 1 -22 7 -4 10 -4 6 1 -4 4 -3 14 3 22 6 7
9 13 6 13 -2 0 -10 -6 -16 -14z"/>
<path d="M2060 3450 c-9 -6 -10 -10 -3 -10 6 0 15 5 18 10 8 12 4 12 -15 0z"/>
<path d="M2013 3415 c0 -8 4 -12 9 -9 5 3 6 10 3 15 -9 13 -12 11 -12 -6z"/>
<path d="M2040 3416 c0 -2 7 -7 16 -10 8 -3 12 -2 9 4 -6 10 -25 14 -25 6z"/>
<path d="M2149 3363 c-13 -16 -12 -17 4 -4 9 7 17 15 17 17 0 8 -8 3 -21 -13z"/>
<path d="M2111 3348 c-1 -10 -6 -18 -12 -18 -5 0 -7 5 -3 12 5 7 3 8 -5 3 -9
-5 -10 -10 -2 -18 14 -14 36 5 28 25 -4 9 -6 7 -6 -4z"/>
<path d="M1871 3246 c-9 -11 -9 -16 1 -22 7 -4 10 -4 6 1 -4 4 -3 14 3 22 6 7
9 13 6 13 -2 0 -10 -6 -16 -14z"/>
<path d="M1895 3240 c-3 -5 -1 -10 4 -10 6 0 11 5 11 10 0 6 -2 10 -4 10 -3 0
-8 -4 -11 -10z"/>
<path d="M1874 3190 c0 -13 4 -16 10 -10 7 7 7 13 0 20 -6 6 -10 3 -10 -10z"/>
<path d="M1980 3186 c0 -8 4 -17 9 -20 5 -4 7 3 4 14 -6 23 -13 26 -13 6z"/>
<path d="M2010 3130 c0 -5 5 -10 11 -10 5 0 7 5 4 10 -3 6 -8 10 -11 10 -2 0
-4 -4 -4 -10z"/>
<path d="M1949 3108 c-7 -23 -4 -35 7 -35 10 0 11 4 3 13 -7 8 -6 14 3 17 10
4 10 6 1 6 -7 1 -13 0 -14 -1z"/>
<path d="M1990 3100 c-9 -6 -10 -10 -3 -10 6 0 15 5 18 10 8 12 4 12 -15 0z"/>
<path d="M1749 3085 c-1 -3 -2 -11 -3 -17 -1 -7 -8 -11 -16 -10 -8 2 -12 0 -8
-3 4 -4 -3 -16 -15 -26 -21 -18 -21 -18 14 -1 20 9 35 20 33 24 -2 3 2 9 8 11
10 4 10 6 0 6 -7 1 -10 6 -7 11 3 6 4 10 1 10 -3 0 -7 -2 -7 -5z"/>
<path d="M1985 3069 c-4 -6 -5 -12 -2 -15 2 -3 7 2 10 11 7 17 1 20 -8 4z"/>
<path d="M1775 3050 c-3 -6 1 -7 9 -4 18 7 21 14 7 14 -6 0 -13 -4 -16 -10z"/>
<path d="M1960 3051 c0 -6 4 -13 10 -16 6 -3 7 1 4 9 -7 18 -14 21 -14 7z"/>
<path d="M2233 3043 c0 -9 4 -10 14 -2 7 6 13 12 13 14 0 1 -6 2 -13 2 -8 0
-14 -6 -14 -14z"/>
<path d="M1729 3013 c-13 -16 -12 -17 4 -4 9 7 17 15 17 17 0 8 -8 3 -21 -13z"/>
<path d="M1780 3020 c8 -5 20 -10 25 -10 6 0 3 5 -5 10 -8 5 -19 10 -25 10 -5
0 -3 -5 5 -10z"/>
<path d="M2022 2981 c-11 -6 -9 -9 5 -13 12 -3 20 0 20 8 0 16 -6 17 -25 5z"/>
<path d="M1970 2971 c0 -6 4 -12 8 -15 5 -3 9 1 9 9 0 8 -4 15 -9 15 -4 0 -8
-4 -8 -9z"/>
<path d="M1665 2930 c-3 -5 -1 -10 4 -10 6 0 11 5 11 10 0 6 -2 10 -4 10 -3 0
-8 -4 -11 -10z"/>
<path d="M1775 2898 c8 -20 30 -24 41 -6 5 7 2 9 -8 5 -9 -3 -21 0 -27 6 -9 9
-11 8 -6 -5z"/>
<path d="M1996 2888 c3 -5 10 -6 15 -3 13 9 11 12 -6 12 -8 0 -12 -4 -9 -9z"/>
<path d="M967 2575 c-4 -9 -7 -64 -7 -121 l0 -104 25 0 c23 0 25 3 25 50 0 38
4 50 15 50 8 0 26 -22 40 -50 18 -35 31 -50 45 -50 25 0 25 2 -1 51 l-20 41
20 22 c26 28 27 77 2 100 -12 11 -43 20 -79 23 -49 5 -60 3 -65 -12z m121 -54
c4 -29 -20 -51 -55 -51 -15 0 -23 6 -24 18 0 9 -2 27 -3 40 -3 21 1 23 38 20
35 -3 42 -7 44 -27z"/>
<path d="M1340 2470 c0 -97 3 -120 14 -120 8 0 16 6 19 13 4 10 7 10 18 0 17
-17 69 -16 91 1 79 60 4 192 -83 146 -17 -10 -19 -7 -19 35 0 38 -3 45 -20 45
-19 0 -20 -7 -20 -120z m111 10 c29 -16 26 -77 -5 -91 -52 -24 -92 44 -50 85
18 19 28 20 55 6z"/>
<path d="M1730 2570 c0 -16 5 -21 23 -18 12 2 22 10 22 18 0 8 -10 16 -22 18
-18 3 -23 -2 -23 -18z"/>
<path d="M2199 2574 c-7 -12 -33 -33 -55 -47 -41 -25 -64 -65 -64 -111 0 -16
13 -6 61 44 33 36 51 51 39 33 -11 -18 -25 -35 -30 -38 -14 -9 -63 -95 -58
-101 9 -8 97 47 123 77 28 34 32 84 12 133 -13 29 -13 30 -28 10z"/>
<path d="M3430 2540 c0 -11 -7 -20 -15 -20 -8 0 -15 -9 -15 -20 0 -11 7 -20
15 -20 12 0 15 -13 15 -55 0 -43 4 -56 19 -65 33 -17 61 -12 61 10 0 13 -7 20
-20 20 -17 0 -20 7 -20 45 0 38 3 45 20 45 13 0 20 7 20 20 0 13 -7 20 -20 20
-13 0 -20 7 -20 20 0 13 -7 20 -20 20 -13 0 -20 -7 -20 -20z"/>
<path d="M1172 2498 c-30 -33 -36 -70 -18 -106 17 -32 34 -42 75 -42 28 0 71
24 71 41 0 12 -37 12 -45 -1 -9 -15 -42 -12 -59 6 -25 25 -10 34 55 34 53 0
59 2 59 20 0 60 -96 92 -138 48z m86 -20 c21 -21 13 -28 -28 -28 -22 0 -40 4
-40 8 0 14 23 32 40 32 9 0 21 -5 28 -12z"/>
<path d="M1566 2499 c-35 -28 -37 -95 -3 -127 55 -51 139 -12 139 64 0 72 -79
108 -136 63z m75 -19 c27 -15 26 -75 -1 -90 -14 -8 -26 -8 -40 0 -26 14 -28
74 -2 89 21 13 20 13 43 1z"/>
<path d="M1730 2435 c0 -78 2 -85 20 -85 18 0 20 7 20 85 0 78 -2 85 -20 85
-18 0 -20 -7 -20 -85z"/>
<path d="M1817 2502 c-33 -36 -18 -63 42 -79 19 -5 36 -14 39 -21 6 -18 -28
-27 -49 -14 -22 14 -49 16 -49 4 0 -39 94 -56 123 -24 33 37 11 71 -56 86 -16
4 -27 12 -24 19 5 15 47 22 47 8 0 -6 9 -11 20 -11 26 0 26 26 1 40 -30 16
-76 12 -94 -8z"/>
<path d="M2305 2495 c-53 -52 -16 -145 57 -145 38 0 78 24 78 46 0 18 -27 18
-46 -1 -20 -19 -39 -19 -58 1 -21 21 -20 57 2 77 23 21 36 21 52 2 16 -19 50
-20 50 -1 0 22 -40 46 -78 46 -22 0 -41 -8 -57 -25z"/>
<path d="M2496 2499 c-35 -28 -37 -95 -3 -127 55 -51 139 -12 139 64 0 72 -79
108 -136 63z m75 -19 c13 -7 19 -21 19 -44 0 -44 -22 -63 -55 -48 -41 19 -30
98 13 102 2 0 12 -5 23 -10z"/>
<path d="M2660 2435 c0 -78 2 -85 20 -85 18 0 20 7 20 53 0 42 5 58 21 73 34
30 53 9 57 -65 3 -53 6 -61 22 -61 18 0 20 7 20 68 0 54 -4 72 -18 85 -23 21
-66 22 -86 1 -15 -14 -16 -14 -16 0 0 9 -8 16 -20 16 -18 0 -20 -7 -20 -85z"/>
<path d="M2850 2435 c0 -78 2 -85 20 -85 18 0 20 7 20 53 0 42 5 58 21 73 34
30 53 9 57 -65 3 -53 6 -61 22 -61 18 0 20 7 20 68 0 76 -16 102 -60 102 -13
0 -32 -7 -42 -17 -17 -15 -18 -15 -18 0 0 10 -8 17 -20 17 -18 0 -20 -7 -20
-85z"/>
<path d="M3066 2499 c-35 -28 -37 -95 -3 -127 33 -31 87 -29 117 3 l23 25 -21
0 c-12 0 -31 -6 -42 -12 -23 -15 -53 -2 -58 26 -3 13 6 16 57 16 57 0 61 1 61
23 0 32 -40 67 -77 67 -17 0 -42 -9 -57 -21z m82 -21 c21 -21 13 -28 -28 -28
-22 0 -40 4 -40 8 0 14 23 32 40 32 9 0 21 -5 28 -12z"/>
<path d="M3262 2513 c-23 -9 -44 -64 -37 -99 12 -66 93 -87 143 -36 l27 27
-23 3 c-12 2 -29 -4 -38 -12 -20 -21 -37 -20 -57 2 -21 23 -21 41 -1 70 18 26
37 28 58 6 9 -8 26 -14 38 -12 l23 3 -27 28 c-26 26 -70 35 -106 20z"/>
<path d="M1685 2170 c-3 -6 1 -7 9 -4 18 7 21 14 7 14 -6 0 -13 -4 -16 -10z"/>
<path d="M1716 2161 c-3 -5 2 -15 12 -22 15 -12 16 -12 5 2 -7 9 -10 19 -6 22
3 4 4 7 0 7 -3 0 -8 -4 -11 -9z"/>
<path d="M1930 2061 c0 -6 4 -13 10 -16 6 -3 7 1 4 9 -7 18 -14 21 -14 7z"/>
<path d="M2000 2043 c5 -2 8 -9 5 -13 -3 -5 -1 -11 4 -14 5 -4 8 2 7 11 -2 9
-8 18 -15 19 -6 1 -7 0 -1 -3z"/>
<path d="M1765 2029 c-4 -6 -4 -13 -1 -16 9 -10 -15 -34 -27 -26 -6 3 -7 1 -3
-6 6 -8 12 -9 20 -2 7 6 17 7 21 3 5 -4 5 -2 2 5 -4 6 -1 14 5 16 10 4 10 6 1
6 -7 1 -13 6 -13 12 0 5 5 7 12 3 7 -4 8 -3 4 4 -9 15 -13 15 -21 1z"/>
<path d="M1900 2021 c0 -6 4 -13 10 -16 6 -3 7 1 4 9 -7 18 -14 21 -14 7z"/>
<path d="M2033 2017 c0 -8 6 -14 14 -14 9 0 10 4 2 14 -6 7 -12 13 -14 13 -1
0 -2 -6 -2 -13z"/>
<path d="M1880 2000 c0 -5 5 -10 11 -10 5 0 7 5 4 10 -3 6 -8 10 -11 10 -2 0
-4 -4 -4 -10z"/>
<path d="M1905 1981 c-3 -5 -2 -12 3 -15 5 -3 9 1 9 9 0 17 -3 19 -12 6z"/>
<path d="M1962 1951 c-11 -7 -11 -9 0 -14 9 -3 15 1 15 9 0 8 -1 14 -1 14 -1
0 -7 -4 -14 -9z"/>
<path d="M1776 1942 c-2 -4 0 -14 6 -22 8 -12 9 -12 5 2 -3 9 -1 19 6 22 9 3
9 5 0 5 -6 1 -14 -3 -17 -7z"/>
<path d="M2045 1940 c-3 -6 1 -7 9 -4 18 7 21 14 7 14 -6 0 -13 -4 -16 -10z"/>
<path d="M2089 1933 c-13 -16 -12 -17 4 -4 9 7 17 15 17 17 0 8 -8 3 -21 -13z"/>
<path d="M2008 1933 c7 -3 16 -2 19 1 4 3 -2 6 -13 5 -11 0 -14 -3 -6 -6z"/>
<path d="M1983 1790 c15 -12 24 -27 20 -33 -3 -7 -3 -9 2 -5 4 4 14 3 22 -3 7
-6 13 -8 13 -4 0 9 -39 42 -65 56 -11 5 -8 0 8 -11z"/>
<path d="M1820 1781 c0 -6 4 -12 8 -15 5 -3 9 1 9 9 0 8 -4 15 -9 15 -4 0 -8
-4 -8 -9z"/>
<path d="M1846 1727 c3 -10 9 -15 12 -12 3 3 0 11 -7 18 -10 9 -11 8 -5 -6z"/>
<path d="M1880 1686 c0 -2 7 -7 16 -10 8 -3 12 -2 9 4 -6 10 -25 14 -25 6z"/>
<path d="M2013 1625 c0 -8 4 -12 9 -9 5 3 6 10 3 15 -9 13 -12 11 -12 -6z"/>
<path d="M2065 1619 c-4 -6 -5 -12 -2 -15 2 -3 7 2 10 11 7 17 1 20 -8 4z"/>
<path d="M2105 1560 c3 -5 8 -10 11 -10 2 0 4 5 4 10 0 6 -5 10 -11 10 -5 0
-7 -4 -4 -10z"/>
<path d="M2160 1536 c0 -2 8 -10 18 -17 15 -13 16 -12 3 4 -13 16 -21 21 -21
13z"/>
</g>
</svg>
